<svg xmlns="http://www.w3.org/2000/svg" version="1.1" xmlns:xlink="http://www.w3.org/1999/xlink" xmlns:svgjs="http://svgjs.com/svgjs" width="512" height="512" x="0" y="0" viewBox="0 0 512 512" style="enable-background:new 0 0 512 512" xml:space="preserve" class=""><g><path d="M301.154 356.238 174.231 510.356a4.546 4.546 0 0 1-5.816 1.012 4.55 4.55 0 0 1-1.93-5.582l59.108-156.003h-60.628a4.555 4.555 0 0 1-3.896-2.198 4.553 4.553 0 0 1-.138-4.476l64.975-123.879H129.55a4.558 4.558 0 0 1-4.054-6.64L233.46 2.475A4.555 4.555 0 0 1 237.513 0h133.053a4.556 4.556 0 0 1 3.937 6.854l-63.936 109.627h71.882a4.558 4.558 0 0 1 3.841 7.009l-92.125 144.271h70.201a4.557 4.557 0 0 1 3.503 7.472l-48.709 59.144" style="" fill="#f29f26" data-original="#f29f26"></path><path d="M160.933 343.109a4.557 4.557 0 0 0 4.034 6.674h60.628l-59.108 156.003a4.55 4.55 0 0 0 1.93 5.582c.128.076.261.136.395.199l132.69-201.1H233.06a4.555 4.555 0 0 1-3.896-2.198 4.553 4.553 0 0 1-.138-4.476l64.975-123.88h-79.612a4.558 4.558 0 0 1-4.054-6.64L299.366 0h-61.852a4.554 4.554 0 0 0-4.053 2.475L125.497 212.587a4.56 4.56 0 0 0 .163 4.457 4.562 4.562 0 0 0 3.891 2.183h96.356l-64.974 123.882z" style="" fill="#ef8229" data-original="#ef8229" class=""></path></g></svg>